HIERARCHY
ROOT root
{
	OFFSET	0	13.1	24.9
	CHANNELS 6  Xposition Yposition Zposition Xrotation Yrotation Zrotation
	JOINT spine_1
	{
		OFFSET	0	9.99999	0
		CHANNELS 3  Xrotation Yrotation Zrotation
		JOINT spine_2
		{
			OFFSET	0	112	-10
			CHANNELS 3  Xrotation Yrotation Zrotation
			JOINT spine_3
			{
				OFFSET	0	206.5	19.3
				CHANNELS 3  Xrotation Yrotation Zrotation
				JOINT spine_4
				{
					OFFSET	0	110.4	14.6
					CHANNELS 3  Xrotation Yrotation Zrotation
					JOINT neck_1
					{
						OFFSET	0	71.8	-50.3
						CHANNELS 3  Xrotation Yrotation Zrotation
						JOINT neck_2
						{
							OFFSET	0	86.2	-25.8
							CHANNELS 3  Xrotation Yrotation Zrotation
							JOINT head_ee
							{
								OFFSET	0	179.8	-8.7
								CHANNELS 3  Xrotation Yrotation Zrotation
								End Site
								{
									OFFSET	1	0	0
								}
							}
						}
					}
					JOINT left_clavicle
					{
						OFFSET	-43.2	22.4	-70.8
						CHANNELS 3  Xrotation Yrotation Zrotation
						JOINT left_shoulder
						{
							OFFSET	-93.9	-5.79999	48.7
							CHANNELS 3  Xrotation Yrotation Zrotation
							JOINT left_elbow
							{
								OFFSET	-291.4	-30.8	15.2
								CHANNELS 3  Xrotation Yrotation Zrotation
								JOINT left_lowarm_twist
								{
									OFFSET	-110.7	-3.89999	13.6
									CHANNELS 3  Xrotation Yrotation Zrotation
									JOINT left_hand
									{
										OFFSET	-110.7	-3.89999	13.6
										CHANNELS 3  Xrotation Yrotation Zrotation
										JOINT left_ee
										{
											OFFSET	-80.8	-5.10001	12.1
											CHANNELS 3  Xrotation Yrotation Zrotation
											End Site
											{
												OFFSET	1	0	0
											}
										}
									}
								}
							}
						}
					}
					JOINT right_clavicle
					{
						OFFSET	43.2	22.4	-70.8
						CHANNELS 3  Xrotation Yrotation Zrotation
						JOINT right_shoulder
						{
							OFFSET	93.9	-5.79999	48.7
							CHANNELS 3  Xrotation Yrotation Zrotation
							JOINT right_elbow
							{
								OFFSET	291.4	-30.8	15.2
								CHANNELS 3  Xrotation Yrotation Zrotation
								JOINT right_lowarm_twist
								{
									OFFSET	110.7	-3.89999	13.6
									CHANNELS 3  Xrotation Yrotation Zrotation
									JOINT right_hand
									{
										OFFSET	110.7	-3.89999	13.6
										CHANNELS 3  Xrotation Yrotation Zrotation
										JOINT right_ee
										{
											OFFSET	80.8	-5.10001	12.1
											CHANNELS 3  Xrotation Yrotation Zrotation
											End Site
											{
												OFFSET	1	0	0
											}
										}
									}
								}
							}
						}
					}
				}
			}
		}
	}
	JOINT left_hip
	{
		OFFSET	-82.8	-127.5	0.300001
		CHANNELS 3  Xrotation Yrotation Zrotation
		JOINT left_knee
		{
			OFFSET	-28.2	-396.7	2.2
			CHANNELS 3  Xrotation Yrotation Zrotation
			JOINT left_ankle
			{
				OFFSET	-11.7	-411.3	35.4
				CHANNELS 3  Xrotation Yrotation Zrotation
				JOINT left_toes
				{
					OFFSET	0	-60	-88.6
					CHANNELS 3  Xrotation Yrotation Zrotation
					JOINT left_foot_ee
					{
						OFFSET	-22.5	-16.5	-42.2
						CHANNELS 3  Xrotation Yrotation Zrotation
						End Site
						{
							OFFSET	1	0	0
						}
					}
				}
			}
		}
	}
	JOINT right_hip
	{
		OFFSET	82.8	-127.5	0.300001
		CHANNELS 3  Xrotation Yrotation Zrotation
		JOINT right_knee
		{
			OFFSET	28.2	-396.7	2.2
			CHANNELS 3  Xrotation Yrotation Zrotation
			JOINT right_ankle
			{
				OFFSET	11.7	-411.3	35.4
				CHANNELS 3  Xrotation Yrotation Zrotation
				JOINT right_toes
				{
					OFFSET	0	-60	-88.6
					CHANNELS 3  Xrotation Yrotation Zrotation
					JOINT right_foot_ee
					{
						OFFSET	22.5	-16.5	-42.2
						CHANNELS 3  Xrotation Yrotation Zrotation
						End Site
						{
							OFFSET	1	0	0
						}
					}
				}
			}
		}
	}
}
MOTION
Frames: 12
Frame Time: 0.02
3469.60919844 717.587 -1523.860138 3.92292369832 54.9490446119 -16.5392068677 0.113251 2.01361 7.18847 0.140633 1.55337 7.3012 0.354949 0.0350633 7.46366 0.279343 1.21013 7.36553 -27.7115 -13.9862 6.7684 -29.8521 -29.3081 -2.09436 -0.0 0.0 -0.0 -10.7634 26.3541 -11.1407 1.51522 -48.0369 79.5572 0.998922 -26.3274 0.233633 -46.1264 -3.62498 4.46513 0.00274971 -18.059 -7.66771 -0.0 0.0 -0.0 10.3419 28.8636 -19.2981 1.47298 47.9866 -68.1115 0.453667 12.666 -0.0503502 25.4189 -0.185083 3.21525 1.79943 -13.3502 -17.0462 0.0 0.0 0.0 8.6339 14.7784 11.3038 -39.2565 -0.420142 5.89392 38.978 26.8603 -5.1311 -1.57931 0.0 0.0 -0.0 0.0 -0.0 12.6648 21.2107 16.0237 -44.4358 0.77281 -6.60778 35.8603 25.3177 5.20968 9.11555 -0.0 -0.0 0.0 0.0 0.0 
3471.46305114 717.587 -1527.63502118 3.73225874221 52.8719262876 -16.303302791 0.113251 2.01361 7.18847 0.140633 1.55337 7.3012 0.354949 0.0350633 7.46366 0.279343 1.21013 7.36553 -27.7115 -13.9862 6.7684 -29.8521 -29.3081 -2.09436 -0.0 0.0 -0.0 -10.7634 26.3541 -11.1407 1.51522 -48.0369 79.5572 0.998922 -26.3274 0.233633 -46.1264 -3.62498 4.46513 0.00274971 -18.059 -7.66771 -0.0 0.0 -0.0 10.3419 28.8636 -19.2981 1.47298 47.9866 -68.1115 0.453667 12.666 -0.0503502 25.4189 -0.185083 3.21525 1.79943 -13.3502 -17.0462 0.0 0.0 0.0 8.6339 14.7784 11.3038 -39.2565 -0.420142 5.89392 38.978 26.8603 -5.1311 -1.57931 0.0 0.0 -0.0 0.0 -0.0 12.6648 21.2107 16.0237 -44.4358 0.77281 -6.60778 35.8603 25.3177 5.20968 9.11555 -0.0 -0.0 0.0 0.0 0.0 
3463.05292983 718.029 -1528.23863053 2.82794237355 54.4102232277 -15.9188568209 -0.208931 1.51401 7.37377 -0.179319 1.04306 7.45454 -0.0251733 -0.550397 7.50672 -0.103139 0.638635 7.49977 -24.9522 -15.1564 7.05568 -27.2078 -32.0841 -1.90879 -0.0 0.0 -0.0 -9.92149 25.3021 -10.4231 0.119121 -45.1235 80.9838 0.970922 -25.6855 0.221355 -45.8647 -3.59534 4.44934 -0.0753746 -19.1567 -8.6563 -0.0 0.0 -0.0 10.1031 27.9083 -18.8801 3.83696 48.6104 -65.8839 0.33602 9.45068 -0.0277756 25.3663 -0.18618 3.20862 1.72231 -14.3521 -16.8735 0.0 0.0 0.0 14.0886 17.1701 8.68328 -41.6261 -0.573449 6.2244 36.2848 25.6012 -4.81484 -2.99919 0.0 0.0 -0.0 0.0 -0.0 12.2638 20.4247 17.0249 -43.8022 0.726205 -6.52217 34.3741 25.3074 5.05122 7.23586 -0.0 -0.0 0.0 0.0 0.0 
3463.25096895 718.029 -1528.64886865 2.81347289205 54.1992335646 -15.901040182 -0.208931 1.51401 7.37377 -0.179319 1.04306 7.45454 -0.0251733 -0.550397 7.50672 -0.103139 0.638635 7.49977 -24.9522 -15.1564 7.05568 -27.2078 -32.0841 -1.90879 -0.0 0.0 -0.0 -9.92149 25.3021 -10.4231 0.119121 -45.1235 80.9838 0.970922 -25.6855 0.221355 -45.8647 -3.59534 4.44934 -0.0753746 -19.1567 -8.6563 -0.0 0.0 -0.0 10.1031 27.9083 -18.8801 3.83696 48.6104 -65.8839 0.33602 9.45068 -0.0277756 25.3663 -0.18618 3.20862 1.72231 -14.3521 -16.8735 0.0 0.0 0.0 14.0886 17.1701 8.68328 -41.6261 -0.573449 6.2244 36.2848 25.6012 -4.81484 -2.99919 0.0 0.0 -0.0 0.0 -0.0 12.2638 20.4247 17.0249 -43.8022 0.726205 -6.52217 34.3741 25.3074 5.05122 7.23586 -0.0 -0.0 0.0 0.0 0.0 
3449.41843716 721.759 -1533.79268593 3.5410533999 55.2335913366 -16.4898602812 -0.816792 1.0406 7.57198 -0.785108 0.558095 7.62245 -0.688005 -1.15227 7.55588 -0.767561 0.0518814 7.64256 -23.6491 -15.6395 6.81311 -25.8946 -33.0884 -2.06085 -0.0 0.0 -0.0 -9.4737 25.8598 -9.56159 -1.02002 -43.4339 80.8389 0.795336 -21.5036 0.151028 -45.4457 -3.54804 4.42377 -0.0933909 -19.6982 -9.0052 -0.0 0.0 -0.0 11.2879 28.4439 -21.4733 6.31869 50.1272 -61.857 0.30196 8.50754 -0.0224595 25.5735 -0.181826 3.23473 1.57267 -15.3849 -16.2414 0.0 0.0 0.0 21.5982 25.6749 2.89029 -41.3621 -0.555693 6.1879 31.3743 22.3305 -4.20193 -6.89999 0.0 0.0 -0.0 0.0 -0.0 11.4421 19.399 17.4888 -46.1971 0.907329 -6.84305 33.0807 26.1962 4.95552 4.73169 -0.0 -0.0 0.0 0.0 0.0 
3442.41380303 728.69 -1540.54750628 3.06115393947 55.3457047456 -16.4971874665 -0.979045 1.21434 7.52855 -0.94785 0.734227 7.59007 -0.825876 -0.990081 7.56112 -0.905483 0.212891 7.62234 -24.9723 -15.2558 9.09012 -27.3114 -33.12 -0.118186 -0.0 0.0 -0.0 -9.45568 25.5884 -9.64835 -1.28066 -42.9554 80.9187 0.644458 -17.7055 0.100376 -45.0866 -3.50764 4.40159 -0.115832 -19.7729 -9.18705 -0.0 0.0 -0.0 11.7602 27.3982 -22.6711 7.45936 51.0494 -60.5132 0.323796 9.11276 -0.025804 25.559 -0.182133 3.23291 1.54979 -14.0836 -15.6561 0.0 0.0 0.0 24.5336 29.7712 0.726506 -42.841 -0.657329 6.39134 28.6923 22.9687 -3.9105 -9.39707 0.0 0.0 -0.0 0.0 -0.0 11.4154 18.6285 18.0394 -45.7634 0.873533 -6.7855 32.0367 26.4319 4.84901 1.95772 -0.0 -0.0 0.0 0.0 0.0 
3435.57508831 729.86 -1543.29468091 1.56196447387 56.1245616668 -15.4370243676 -0.952317 1.2318 7.59711 -0.920557 0.747335 7.6596 -0.795704 -0.988899 7.63233 -0.876809 0.225204 7.69247 -24.7287 -14.6616 10.5609 -26.8581 -32.6551 1.7106 -0.0 0.0 -0.0 -9.3301 25.3414 -9.57377 -1.68159 -42.4128 80.4701 0.537411 -14.9076 0.0703111 -44.6802 -3.46208 4.37617 -0.23384 -19.0694 -9.68417 -0.0 0.0 -0.0 12.6115 26.2497 -24.7526 10.4762 52.712 -60.3013 0.425549 11.9041 -0.0443672 26.1175 -0.169946 3.30321 1.51682 -12.4917 -14.893 0.0 0.0 0.0 27.0945 32.4624 -0.913567 -39.697 -0.447601 5.95583 22.0537 25.8317 -3.15116 -13.0272 0.0 0.0 -0.0 0.0 -0.0 11.0138 17.8825 18.4403 -45.2312 0.832658 -6.71453 31.73 25.6452 4.77269 -1.21908 0.0 0.0 0.0 0.0 0.0 
3427.70429435 720.487 -1549.25249392 1.29862821533 56.1870772367 -15.6067445534 -1.0841 1.38055 7.64148 -1.0521 0.89299 7.71325 -0.904899 -0.87257 7.71558 -0.98768 0.353127 7.75648 -22.7452 -13.8647 10.9238 -24.4172 -31.6927 3.09944 -0.0 0.0 -0.0 -9.79241 25.3496 -10.2204 -1.91924 -42.1166 80.682 0.385844 -10.821 0.0365444 -43.2216 -3.30012 4.28232 -0.755682 -15.6662 -11.7975 -0.0 0.0 -0.0 12.6198 24.7043 -24.9448 12.1713 53.4153 -59.7372 0.51009 14.1811 -0.0634499 26.5635 -0.159721 3.35927 1.63486 -9.20811 -14.5085 0.0 0.0 0.0 28.3168 34.1676 -1.41646 -35.0286 -0.181149 5.28993 15.0246 29.2999 -2.25637 -16.1819 0.0 0.0 -0.0 0.0 -0.0 10.37 18.4258 18.5046 -44.1509 0.751741 -6.56936 33.6811 25.7373 4.99806 -3.28234 0.0 0.0 0.0 0.0 0.0 
3427.06517219 720.487 -1547.98063212 1.31566742914 56.6825563025 -15.627193283 -1.0841 1.38055 7.64148 -1.0521 0.89299 7.71325 -0.904899 -0.87257 7.71558 -0.98768 0.353127 7.75648 -22.7452 -13.8647 10.9238 -24.4172 -31.6927 3.09944 -0.0 0.0 -0.0 -9.79241 25.3496 -10.2204 -1.91924 -42.1166 80.682 0.385844 -10.821 0.0365444 -43.2216 -3.30012 4.28232 -0.755682 -15.6662 -11.7975 -0.0 0.0 -0.0 12.6198 24.7043 -24.9448 12.1713 53.4153 -59.7372 0.51009 14.1811 -0.0634499 26.5635 -0.159721 3.35927 1.63486 -9.20811 -14.5085 0.0 0.0 0.0 28.3168 34.1676 -1.41646 -35.0286 -0.181149 5.28993 15.0246 29.2999 -2.25637 -16.1819 0.0 0.0 -0.0 0.0 -0.0 10.37 18.4258 18.5046 -44.1509 0.751741 -6.56936 33.6811 25.7373 4.99806 -3.28234 0.0 0.0 0.0 0.0 0.0 
3415.25889485 718.106 -1546.07402435 0.278089759658 56.2503296383 -15.8312669316 -1.0547 1.58798 7.75608 -1.02194 1.09278 7.84068 -0.84414 -0.696672 7.88548 -0.930357 0.553441 7.89675 -19.2983 -11.2614 12.0353 -20.041 -27.9096 6.43285 -0.0 0.0 -0.0 -9.33995 25.3157 -9.59799 -1.73124 -42.0668 81.4516 0.236433 -6.68033 0.0137989 -42.743 -3.2475 4.25063 -1.22096 -9.56883 -12.4017 -0.0 0.0 -0.0 12.9137 22.9835 -25.7973 14.504 53.7041 -60.5853 0.697292 19.0559 -0.117037 28.6166 -0.107035 3.61623 1.08615 -2.79402 -8.39729 0.0 0.0 0.0 29.5693 34.3272 -2.34855 -31.8009 -0.0291165 4.81811 9.6759 28.4145 -1.46988 -18.8873 0.0 0.0 -0.0 0.0 -0.0 7.16975 19.4501 19.5818 -39.744 0.450558 -5.96241 36.6459 23.7383 5.20831 -4.31019 0.0 0.0 0.0 0.0 0.0 
3397.18026866 717.416 -1550.70975279 2.00460209869 56.8023843993 -17.6148181751 -1.27274 1.64682 7.75206 -1.24009 1.15175 7.84039 -1.05196 -0.667402 7.89603 -1.13836 0.584002 7.9026 -17.732 -8.91165 12.0936 -18.0158 -23.7313 7.88708 -0.0 0.0 -0.0 -9.18571 25.7106 -9.22338 -4.61678 -41.4835 80.1945 0.306838 -8.64291 0.0231869 -41.8287 -3.14771 4.18888 -1.12946 -5.58057 -10.0325 -0.0 0.0 -0.0 12.6373 23.0265 -25.1532 15.9152 53.6699 -61.7421 0.801712 21.6601 -0.153373 28.9199 -0.0984732 3.65402 0.682553 2.11095 -3.69068 0.0 0.0 0.0 29.7589 35.4926 -3.45641 -29.5612 0.0606228 4.48614 7.92537 28.1994 -1.20848 -21.2169 0.0 0.0 -0.0 0.0 -0.0 5.43893 17.3167 20.6201 -40.3204 0.487276 -6.04307 37.921 24.9291 5.39738 -6.34345 0.0 0.0 0.0 0.0 0.0 
3379.40605268 716.122 -1554.29192177 1.96941840353 58.0285257184 -17.231385995 -1.21905 1.665 7.74764 -1.18645 1.17018 7.83712 -0.996333 -0.640826 7.89767 -1.08273 0.610507 7.90006 -18.3981 -6.01356 13.2138 -18.3548 -18.6578 10.0237 -0.0 0.0 -0.0 -9.05855 24.9716 -9.34062 -6.147 -41.2865 80.2489 0.295472 -8.32734 0.0215098 -40.4225 -2.9962 4.09083 -1.34444 0.33549 -8.86431 -0.0 0.0 -0.0 12.7421 23.0053 -25.3975 15.602 53.6784 -61.5112 0.900993 24.0521 -0.191944 30.5744 -0.0482446 3.85938 0.62217 10.1455 0.111003 0.0 0.0 0.0 28.0985 35.8288 -2.53833 -21.3868 0.276579 3.2513 4.44024 28.0258 -0.682695 -24.9558 0.0 0.0 -0.0 0.0 -0.0 4.16428 17.3692 20.1641 -39.602 0.441638 -5.94249 38.2428 22.0216 5.28181 -5.51295 0.0 0.0 0.0 0.0 0.0 
